<?xml version="1.0" encoding="iso-8859-1"?>
<!-- Generator: Adobe Illustrator 19.0.0, SVG Export Plug-In . SVG Version: 6.00 Build 0)  -->
<svg version="1.1" id="Layer_1" xmlns="http://www.w3.org/2000/svg" xmlns:xlink="http://www.w3.org/1999/xlink" x="0px" y="0px"
	 viewBox="0 0 512.016 512.016" style="enable-background:new 0 0 512.016 512.016;" xml:space="preserve">
<path style="fill:#99DDFF;" d="M318.4,99.002c103.903,136.25,117.299,153.894,117.299,216.955
	c0,99.002-80.705,179.706-179.706,179.706S76.286,414.959,76.286,315.957c0-63.061,13.396-80.705,117.299-216.955
	c17.971-23.852,38.555-50.971,62.407-82.665C279.844,48.031,300.429,75.15,318.4,99.002z"/>
<g>
	<path style="fill:#664848;" d="M430.275,226.969c-17.464-31.236-46.936-69.693-98.888-137.884l0.065,0.082
		c-18.003-23.885-38.572-50.988-62.407-82.665C265.958,2.418,261.122,0,255.992,0c-5.13,0-9.966,2.418-13.053,6.518
		c-23.836,31.661-44.404,58.764-62.407,82.665l0.065-0.082c-51.952,68.19-81.423,106.648-98.888,137.884
		c-17.66,31.138-21.99,56.559-21.744,88.987c0.049,108.069,87.974,195.994,196.043,196.043
		c108.069-0.049,195.994-87.974,196.043-196.043C452.281,283.528,447.935,258.107,430.275,226.969z M371.413,431.377
		c-29.652,29.635-70.412,47.933-115.421,47.949c-45.008,0-85.769-18.314-115.421-47.949
		c-29.635-29.652-47.933-70.412-47.949-115.421c0.245-30.632,2.598-45.564,17.628-73.075c15.21-27.413,44.387-65.903,96.339-133.963
		l0.065-0.082c14.556-19.327,30.975-40.989,49.354-65.348c18.379,24.375,34.798,46.038,49.354,65.348l0.065,0.082
		c51.952,68.06,81.129,106.55,96.339,133.963c15.014,27.511,17.382,42.443,17.628,73.075
		C419.346,360.965,401.048,401.726,371.413,431.377z"/>
	<path style="fill:#664848;" d="M370.351,299.62c-9.018,0-16.337,7.319-16.337,16.337c0,27.054-10.962,51.461-28.753,69.269
		c-17.807,17.791-42.215,28.737-69.269,28.753c-9.018,0-16.337,7.319-16.337,16.337s7.319,16.337,16.337,16.337
		c72.111-0.033,130.663-58.584,130.696-130.696C386.688,306.939,379.369,299.62,370.351,299.62z"/>
</g>
<g>
</g>
<g>
</g>
<g>
</g>
<g>
</g>
<g>
</g>
<g>
</g>
<g>
</g>
<g>
</g>
<g>
</g>
<g>
</g>
<g>
</g>
<g>
</g>
<g>
</g>
<g>
</g>
<g>
</g>
</svg>
