<?xml version="1.0" encoding="iso-8859-1"?>
<!-- Generator: Adobe Illustrator 18.1.1, SVG Export Plug-In . SVG Version: 6.00 Build 0)  -->
<svg xmlns="http://www.w3.org/2000/svg" xmlns:xlink="http://www.w3.org/1999/xlink" version="1.1" id="Capa_1" x="0px" y="0px" viewBox="0 0 56 56" style="enable-background:new 0 0 56 56;" xml:space="preserve" width="512px" height="512px">
<g>
	<path d="M48,19.5v-7h-6v-7H0v30h7v8h7v7h42v-31H48z M52,46.5H18v-3v-2v-2v-4v-2v-2v-8h20h2h2h2h2h2h4V46.5z    M4,9.5h34v3H7v19H4V9.5z M11,35.5v-2v-2v-15h27h2h2h2v3h-2h-2h-2H14v12v2v2v4h-3V35.5z" fill="#FFFFFF"/>
</g>
<g>
</g>
<g>
</g>
<g>
</g>
<g>
</g>
<g>
</g>
<g>
</g>
<g>
</g>
<g>
</g>
<g>
</g>
<g>
</g>
<g>
</g>
<g>
</g>
<g>
</g>
<g>
</g>
<g>
</g>
</svg>
